<mxfile host="app.diagrams.net" modified="2023-02-15T09:03:06.941Z" agent="5.0 (Windows NT 10.0; Win64; x64) AppleWebKit/537.36 (KHTML, like Gecko) Chrome/110.0.0.0 Safari/537.36" version="20.7.4" etag="OZvUPE4d2HfaaTNZroVt" type="github">
  <diagram id="vsr2VdzhfT-q56Gnh5Gm" name="페이지-1">
    <mxGraphModel dx="1300" dy="1979" grid="1" gridSize="10" guides="1" tooltips="1" connect="1" arrows="1" fold="1" page="1" pageScale="1" pageWidth="827" pageHeight="1169" math="0" shadow="0">
      <root>
        <mxCell id="0" />
        <mxCell id="1" parent="0" />
        <mxCell id="SGicZ9Gy4rJhCH-ibTGT-68" value="Object" style="html=1;" vertex="1" parent="1">
          <mxGeometry x="130" y="-90" width="590" height="940" as="geometry" />
        </mxCell>
        <mxCell id="SGicZ9Gy4rJhCH-ibTGT-14" value="사용자" style="shape=umlActor;verticalLabelPosition=bottom;verticalAlign=top;html=1;" vertex="1" parent="1">
          <mxGeometry x="40" y="303" width="30" height="60" as="geometry" />
        </mxCell>
        <mxCell id="SGicZ9Gy4rJhCH-ibTGT-15" value="관리자" style="shape=umlActor;verticalLabelPosition=bottom;verticalAlign=top;html=1;" vertex="1" parent="1">
          <mxGeometry x="750" y="565" width="30" height="60" as="geometry" />
        </mxCell>
        <mxCell id="SGicZ9Gy4rJhCH-ibTGT-20" value="게시글 등록" style="ellipse;whiteSpace=wrap;html=1;" vertex="1" parent="1">
          <mxGeometry x="200" y="90" width="140" height="70" as="geometry" />
        </mxCell>
        <mxCell id="SGicZ9Gy4rJhCH-ibTGT-25" value="게시글 목록 조회" style="ellipse;whiteSpace=wrap;html=1;" vertex="1" parent="1">
          <mxGeometry x="200" y="220" width="140" height="70" as="geometry" />
        </mxCell>
        <mxCell id="SGicZ9Gy4rJhCH-ibTGT-26" value="신고하기&lt;span style=&quot;color: rgba(0, 0, 0, 0); font-family: monospace; font-size: 0px; text-align: start;&quot;&gt;%3CmxGraphModel%3E%3Croot%3E%3CmxCell%20id%3D%220%22%2F%3E%3CmxCell%20id%3D%221%22%20parent%3D%220%22%2F%3E%3CmxCell%20id%3D%222%22%20value%3D%22Use%20Case%22%20style%3D%22ellipse%3BwhiteSpace%3Dwrap%3Bhtml%3D1%3B%22%20vertex%3D%221%22%20parent%3D%221%22%3E%3CmxGeometry%20x%3D%22200%22%20y%3D%22290%22%20width%3D%22140%22%20height%3D%2270%22%20as%3D%22geometry%22%2F%3E%3C%2FmxCell%3E%3C%2Froot%3E%3C%2FmxGraphModel%3E&lt;/span&gt;&lt;span style=&quot;color: rgba(0, 0, 0, 0); font-family: monospace; font-size: 0px; text-align: start;&quot;&gt;%3CmxGraphModel%3E%3Croot%3E%3CmxCell%20id%3D%220%22%2F%3E%3CmxCell%20id%3D%221%22%20parent%3D%220%22%2F%3E%3CmxCell%20id%3D%222%22%20value%3D%22Use%20Case%22%20style%3D%22ellipse%3BwhiteSpace%3Dwrap%3Bhtml%3D1%3B%22%20vertex%3D%221%22%20parent%3D%221%22%3E%3CmxGeometry%20x%3D%22200%22%20y%3D%22290%22%20width%3D%22140%22%20height%3D%2270%22%20as%3D%22geometry%22%2F%3E%3C%2FmxCell%3E%3C%2Froot%3E%3C%2FmxGraphModel%3E&lt;/span&gt;" style="ellipse;whiteSpace=wrap;html=1;" vertex="1" parent="1">
          <mxGeometry x="190" y="540" width="140" height="70" as="geometry" />
        </mxCell>
        <mxCell id="SGicZ9Gy4rJhCH-ibTGT-27" value="댓글달기" style="ellipse;whiteSpace=wrap;html=1;" vertex="1" parent="1">
          <mxGeometry x="570" y="298" width="140" height="70" as="geometry" />
        </mxCell>
        <mxCell id="SGicZ9Gy4rJhCH-ibTGT-28" value="사진첨부" style="ellipse;whiteSpace=wrap;html=1;" vertex="1" parent="1">
          <mxGeometry x="530" y="10" width="140" height="70" as="geometry" />
        </mxCell>
        <mxCell id="SGicZ9Gy4rJhCH-ibTGT-29" value="카테고리" style="ellipse;whiteSpace=wrap;html=1;" vertex="1" parent="1">
          <mxGeometry x="414" y="130" width="140" height="70" as="geometry" />
        </mxCell>
        <mxCell id="SGicZ9Gy4rJhCH-ibTGT-30" value="게시글 상세 조회" style="ellipse;whiteSpace=wrap;html=1;" vertex="1" parent="1">
          <mxGeometry x="414" y="233" width="140" height="70" as="geometry" />
        </mxCell>
        <mxCell id="SGicZ9Gy4rJhCH-ibTGT-32" value="게시글 수정" style="ellipse;whiteSpace=wrap;html=1;" vertex="1" parent="1">
          <mxGeometry x="190" y="350" width="140" height="70" as="geometry" />
        </mxCell>
        <mxCell id="SGicZ9Gy4rJhCH-ibTGT-33" value="게시글 pw인증" style="ellipse;whiteSpace=wrap;html=1;" vertex="1" parent="1">
          <mxGeometry x="400" y="390" width="140" height="70" as="geometry" />
        </mxCell>
        <mxCell id="SGicZ9Gy4rJhCH-ibTGT-34" value="게시글 삭제" style="ellipse;whiteSpace=wrap;html=1;" vertex="1" parent="1">
          <mxGeometry x="190" y="444.5" width="140" height="70" as="geometry" />
        </mxCell>
        <mxCell id="SGicZ9Gy4rJhCH-ibTGT-35" value="방문자수 통계" style="ellipse;whiteSpace=wrap;html=1;" vertex="1" parent="1">
          <mxGeometry x="554" y="690" width="140" height="70" as="geometry" />
        </mxCell>
        <mxCell id="SGicZ9Gy4rJhCH-ibTGT-36" value="날짜별" style="ellipse;whiteSpace=wrap;html=1;" vertex="1" parent="1">
          <mxGeometry x="370" y="750" width="140" height="70" as="geometry" />
        </mxCell>
        <mxCell id="SGicZ9Gy4rJhCH-ibTGT-37" value="시간별" style="ellipse;whiteSpace=wrap;html=1;" vertex="1" parent="1">
          <mxGeometry x="370" y="650" width="140" height="70" as="geometry" />
        </mxCell>
        <mxCell id="SGicZ9Gy4rJhCH-ibTGT-38" value="소모임 만들기" style="ellipse;whiteSpace=wrap;html=1;" vertex="1" parent="1">
          <mxGeometry x="160" y="-40" width="140" height="70" as="geometry" />
        </mxCell>
        <mxCell id="SGicZ9Gy4rJhCH-ibTGT-39" value="소모임 가입신청" style="ellipse;whiteSpace=wrap;html=1;" vertex="1" parent="1">
          <mxGeometry x="320" y="-40" width="140" height="70" as="geometry" />
        </mxCell>
        <mxCell id="SGicZ9Gy4rJhCH-ibTGT-41" value="&amp;lt;&amp;lt;include&amp;gt;&amp;gt;" style="html=1;verticalAlign=bottom;endArrow=open;dashed=1;endSize=8;rounded=0;exitX=1;exitY=0.5;exitDx=0;exitDy=0;entryX=0;entryY=0.5;entryDx=0;entryDy=0;" edge="1" parent="1" source="SGicZ9Gy4rJhCH-ibTGT-25" target="SGicZ9Gy4rJhCH-ibTGT-29">
          <mxGeometry relative="1" as="geometry">
            <mxPoint x="140" y="160" as="sourcePoint" />
            <mxPoint x="60" y="160" as="targetPoint" />
          </mxGeometry>
        </mxCell>
        <mxCell id="SGicZ9Gy4rJhCH-ibTGT-42" value="&amp;lt;&amp;lt;include&amp;gt;&amp;gt;" style="html=1;verticalAlign=bottom;endArrow=open;dashed=1;endSize=8;rounded=0;exitX=1;exitY=0.5;exitDx=0;exitDy=0;entryX=0;entryY=0.5;entryDx=0;entryDy=0;" edge="1" parent="1" source="SGicZ9Gy4rJhCH-ibTGT-20" target="SGicZ9Gy4rJhCH-ibTGT-29">
          <mxGeometry relative="1" as="geometry">
            <mxPoint x="150" y="170" as="sourcePoint" />
            <mxPoint x="70" y="170" as="targetPoint" />
          </mxGeometry>
        </mxCell>
        <mxCell id="SGicZ9Gy4rJhCH-ibTGT-44" value="" style="endArrow=open;endFill=1;endSize=12;html=1;rounded=0;exitX=1;exitY=0.3333333333333333;exitDx=0;exitDy=0;exitPerimeter=0;entryX=0;entryY=0.5;entryDx=0;entryDy=0;" edge="1" parent="1" source="SGicZ9Gy4rJhCH-ibTGT-14" target="SGicZ9Gy4rJhCH-ibTGT-25">
          <mxGeometry width="160" relative="1" as="geometry">
            <mxPoint x="70" y="430" as="sourcePoint" />
            <mxPoint x="230" y="430" as="targetPoint" />
          </mxGeometry>
        </mxCell>
        <mxCell id="SGicZ9Gy4rJhCH-ibTGT-45" value="" style="endArrow=open;endFill=1;endSize=12;html=1;rounded=0;exitX=1;exitY=0.3333333333333333;exitDx=0;exitDy=0;exitPerimeter=0;entryX=0;entryY=0.5;entryDx=0;entryDy=0;" edge="1" parent="1" source="SGicZ9Gy4rJhCH-ibTGT-14" target="SGicZ9Gy4rJhCH-ibTGT-32">
          <mxGeometry width="160" relative="1" as="geometry">
            <mxPoint x="80" y="333" as="sourcePoint" />
            <mxPoint x="209.99999999999966" y="265" as="targetPoint" />
          </mxGeometry>
        </mxCell>
        <mxCell id="SGicZ9Gy4rJhCH-ibTGT-46" value="" style="endArrow=open;endFill=1;endSize=12;html=1;rounded=0;exitX=1;exitY=0.3333333333333333;exitDx=0;exitDy=0;exitPerimeter=0;entryX=0;entryY=0.5;entryDx=0;entryDy=0;" edge="1" parent="1" source="SGicZ9Gy4rJhCH-ibTGT-14" target="SGicZ9Gy4rJhCH-ibTGT-34">
          <mxGeometry width="160" relative="1" as="geometry">
            <mxPoint x="90" y="343" as="sourcePoint" />
            <mxPoint x="219.99999999999966" y="275" as="targetPoint" />
          </mxGeometry>
        </mxCell>
        <mxCell id="SGicZ9Gy4rJhCH-ibTGT-47" value="" style="endArrow=open;endFill=1;endSize=12;html=1;rounded=0;entryX=0;entryY=0.5;entryDx=0;entryDy=0;exitX=1;exitY=0.3333333333333333;exitDx=0;exitDy=0;exitPerimeter=0;" edge="1" parent="1" source="SGicZ9Gy4rJhCH-ibTGT-14" target="SGicZ9Gy4rJhCH-ibTGT-20">
          <mxGeometry width="160" relative="1" as="geometry">
            <mxPoint x="70" y="320" as="sourcePoint" />
            <mxPoint x="229.99999999999966" y="285" as="targetPoint" />
          </mxGeometry>
        </mxCell>
        <mxCell id="SGicZ9Gy4rJhCH-ibTGT-48" value="" style="endArrow=open;endFill=1;endSize=12;html=1;rounded=0;exitX=0;exitY=0.3333333333333333;exitDx=0;exitDy=0;exitPerimeter=0;entryX=1;entryY=0.5;entryDx=0;entryDy=0;" edge="1" parent="1" source="SGicZ9Gy4rJhCH-ibTGT-15" target="SGicZ9Gy4rJhCH-ibTGT-35">
          <mxGeometry width="160" relative="1" as="geometry">
            <mxPoint x="110" y="363" as="sourcePoint" />
            <mxPoint x="239.99999999999966" y="295" as="targetPoint" />
          </mxGeometry>
        </mxCell>
        <mxCell id="SGicZ9Gy4rJhCH-ibTGT-49" value="" style="endArrow=block;dashed=1;endFill=0;endSize=12;html=1;rounded=0;exitX=1;exitY=0.5;exitDx=0;exitDy=0;entryX=0;entryY=0.5;entryDx=0;entryDy=0;" edge="1" parent="1" source="SGicZ9Gy4rJhCH-ibTGT-37" target="SGicZ9Gy4rJhCH-ibTGT-35">
          <mxGeometry width="160" relative="1" as="geometry">
            <mxPoint x="220" y="420" as="sourcePoint" />
            <mxPoint x="380" y="420" as="targetPoint" />
            <Array as="points" />
          </mxGeometry>
        </mxCell>
        <mxCell id="SGicZ9Gy4rJhCH-ibTGT-50" value="" style="endArrow=block;dashed=1;endFill=0;endSize=12;html=1;rounded=0;exitX=1;exitY=0.5;exitDx=0;exitDy=0;entryX=0;entryY=0.5;entryDx=0;entryDy=0;" edge="1" parent="1" source="SGicZ9Gy4rJhCH-ibTGT-36" target="SGicZ9Gy4rJhCH-ibTGT-35">
          <mxGeometry width="160" relative="1" as="geometry">
            <mxPoint x="220" y="420" as="sourcePoint" />
            <mxPoint x="380" y="420" as="targetPoint" />
          </mxGeometry>
        </mxCell>
        <mxCell id="SGicZ9Gy4rJhCH-ibTGT-54" value="Extends" style="endArrow=block;endSize=16;endFill=0;html=1;rounded=0;exitX=0;exitY=0.5;exitDx=0;exitDy=0;entryX=1;entryY=0.5;entryDx=0;entryDy=0;" edge="1" parent="1" source="SGicZ9Gy4rJhCH-ibTGT-28" target="SGicZ9Gy4rJhCH-ibTGT-20">
          <mxGeometry width="160" relative="1" as="geometry">
            <mxPoint x="280" y="280" as="sourcePoint" />
            <mxPoint x="440" y="280" as="targetPoint" />
          </mxGeometry>
        </mxCell>
        <mxCell id="SGicZ9Gy4rJhCH-ibTGT-55" value="&amp;lt;&amp;lt;include&amp;gt;&amp;gt;" style="html=1;verticalAlign=bottom;endArrow=open;dashed=1;endSize=8;rounded=0;exitX=1;exitY=0.5;exitDx=0;exitDy=0;entryX=0;entryY=0.5;entryDx=0;entryDy=0;" edge="1" parent="1" source="SGicZ9Gy4rJhCH-ibTGT-32" target="SGicZ9Gy4rJhCH-ibTGT-33">
          <mxGeometry relative="1" as="geometry">
            <mxPoint x="140" y="160" as="sourcePoint" />
            <mxPoint x="60" y="160" as="targetPoint" />
          </mxGeometry>
        </mxCell>
        <mxCell id="SGicZ9Gy4rJhCH-ibTGT-56" value="&amp;lt;&amp;lt;include&amp;gt;&amp;gt;" style="html=1;verticalAlign=bottom;endArrow=open;dashed=1;endSize=8;rounded=0;exitX=0;exitY=0.5;exitDx=0;exitDy=0;entryX=1;entryY=0.5;entryDx=0;entryDy=0;" edge="1" parent="1" source="SGicZ9Gy4rJhCH-ibTGT-30" target="SGicZ9Gy4rJhCH-ibTGT-25">
          <mxGeometry relative="1" as="geometry">
            <mxPoint x="150" y="170" as="sourcePoint" />
            <mxPoint x="70" y="170" as="targetPoint" />
          </mxGeometry>
        </mxCell>
        <mxCell id="SGicZ9Gy4rJhCH-ibTGT-57" value="" style="endArrow=block;dashed=1;endFill=0;endSize=12;html=1;rounded=0;exitX=0.5;exitY=1;exitDx=0;exitDy=0;entryX=0.5;entryY=0;entryDx=0;entryDy=0;" edge="1" parent="1" source="SGicZ9Gy4rJhCH-ibTGT-38" target="SGicZ9Gy4rJhCH-ibTGT-20">
          <mxGeometry width="160" relative="1" as="geometry">
            <mxPoint x="70.00000000000023" y="80" as="sourcePoint" />
            <mxPoint x="20" y="110" as="targetPoint" />
          </mxGeometry>
        </mxCell>
        <mxCell id="SGicZ9Gy4rJhCH-ibTGT-58" value="" style="endArrow=block;dashed=1;endFill=0;endSize=12;html=1;rounded=0;exitX=0.5;exitY=1;exitDx=0;exitDy=0;entryX=0.5;entryY=0;entryDx=0;entryDy=0;" edge="1" parent="1" source="SGicZ9Gy4rJhCH-ibTGT-39" target="SGicZ9Gy4rJhCH-ibTGT-20">
          <mxGeometry width="160" relative="1" as="geometry">
            <mxPoint x="130.00000000000023" y="80" as="sourcePoint" />
            <mxPoint x="80" y="110" as="targetPoint" />
          </mxGeometry>
        </mxCell>
        <mxCell id="SGicZ9Gy4rJhCH-ibTGT-59" value="Extends" style="endArrow=block;endSize=16;endFill=0;html=1;rounded=0;exitX=0;exitY=0.5;exitDx=0;exitDy=0;entryX=1;entryY=0.5;entryDx=0;entryDy=0;" edge="1" parent="1" source="SGicZ9Gy4rJhCH-ibTGT-27" target="SGicZ9Gy4rJhCH-ibTGT-30">
          <mxGeometry width="160" relative="1" as="geometry">
            <mxPoint x="190" y="350" as="sourcePoint" />
            <mxPoint x="350" y="350" as="targetPoint" />
          </mxGeometry>
        </mxCell>
        <mxCell id="SGicZ9Gy4rJhCH-ibTGT-60" value="&amp;lt;&amp;lt;include&amp;gt;&amp;gt;" style="html=1;verticalAlign=bottom;endArrow=open;dashed=1;endSize=8;rounded=0;exitX=1;exitY=0.5;exitDx=0;exitDy=0;entryX=0;entryY=0.5;entryDx=0;entryDy=0;" edge="1" parent="1" source="SGicZ9Gy4rJhCH-ibTGT-34" target="SGicZ9Gy4rJhCH-ibTGT-33">
          <mxGeometry relative="1" as="geometry">
            <mxPoint x="340" y="395" as="sourcePoint" />
            <mxPoint x="410.0000000000002" y="435" as="targetPoint" />
          </mxGeometry>
        </mxCell>
        <mxCell id="SGicZ9Gy4rJhCH-ibTGT-61" value="" style="endArrow=open;endFill=1;endSize=12;html=1;rounded=0;exitX=1;exitY=0.3333333333333333;exitDx=0;exitDy=0;exitPerimeter=0;entryX=0;entryY=0.5;entryDx=0;entryDy=0;" edge="1" parent="1" source="SGicZ9Gy4rJhCH-ibTGT-14" target="SGicZ9Gy4rJhCH-ibTGT-26">
          <mxGeometry width="160" relative="1" as="geometry">
            <mxPoint x="190" y="450" as="sourcePoint" />
            <mxPoint x="350" y="450" as="targetPoint" />
          </mxGeometry>
        </mxCell>
        <mxCell id="SGicZ9Gy4rJhCH-ibTGT-62" value="댓글" style="ellipse;whiteSpace=wrap;html=1;" vertex="1" parent="1">
          <mxGeometry x="400" y="560" width="140" height="70" as="geometry" />
        </mxCell>
        <mxCell id="SGicZ9Gy4rJhCH-ibTGT-63" value="게시물" style="ellipse;whiteSpace=wrap;html=1;" vertex="1" parent="1">
          <mxGeometry x="400" y="470" width="140" height="70" as="geometry" />
        </mxCell>
        <mxCell id="SGicZ9Gy4rJhCH-ibTGT-66" value="" style="endArrow=open;endFill=1;endSize=12;html=1;rounded=0;entryX=0;entryY=0.3333333333333333;entryDx=0;entryDy=0;entryPerimeter=0;exitX=1;exitY=0.5;exitDx=0;exitDy=0;" edge="1" parent="1" source="SGicZ9Gy4rJhCH-ibTGT-63" target="SGicZ9Gy4rJhCH-ibTGT-15">
          <mxGeometry width="160" relative="1" as="geometry">
            <mxPoint x="280" y="580" as="sourcePoint" />
            <mxPoint x="440" y="580" as="targetPoint" />
          </mxGeometry>
        </mxCell>
        <mxCell id="SGicZ9Gy4rJhCH-ibTGT-67" value="" style="endArrow=open;endFill=1;endSize=12;html=1;rounded=0;entryX=0;entryY=0.3333333333333333;entryDx=0;entryDy=0;entryPerimeter=0;exitX=1;exitY=0.5;exitDx=0;exitDy=0;" edge="1" parent="1" source="SGicZ9Gy4rJhCH-ibTGT-62" target="SGicZ9Gy4rJhCH-ibTGT-15">
          <mxGeometry width="160" relative="1" as="geometry">
            <mxPoint x="550" y="515" as="sourcePoint" />
            <mxPoint x="760" y="595" as="targetPoint" />
          </mxGeometry>
        </mxCell>
        <mxCell id="SGicZ9Gy4rJhCH-ibTGT-71" value="소모임 안내 사이트" style="text;strokeColor=none;fillColor=none;align=left;verticalAlign=top;spacingLeft=4;spacingRight=4;overflow=hidden;rotatable=0;points=[[0,0.5],[1,0.5]];portConstraint=eastwest;" vertex="1" parent="1">
          <mxGeometry x="604" y="-90" width="116" height="26" as="geometry" />
        </mxCell>
        <mxCell id="SGicZ9Gy4rJhCH-ibTGT-72" value="&amp;lt;&amp;lt;include&amp;gt;&amp;gt;" style="html=1;verticalAlign=bottom;endArrow=open;dashed=1;endSize=8;rounded=0;exitX=1;exitY=0.5;exitDx=0;exitDy=0;entryX=0;entryY=0.5;entryDx=0;entryDy=0;" edge="1" parent="1" source="SGicZ9Gy4rJhCH-ibTGT-26" target="SGicZ9Gy4rJhCH-ibTGT-63">
          <mxGeometry relative="1" as="geometry">
            <mxPoint x="340" y="489.5" as="sourcePoint" />
            <mxPoint x="410" y="435" as="targetPoint" />
          </mxGeometry>
        </mxCell>
        <mxCell id="SGicZ9Gy4rJhCH-ibTGT-73" value="&amp;lt;&amp;lt;include&amp;gt;&amp;gt;" style="html=1;verticalAlign=bottom;endArrow=open;dashed=1;endSize=8;rounded=0;exitX=1;exitY=0.5;exitDx=0;exitDy=0;entryX=0;entryY=0.5;entryDx=0;entryDy=0;" edge="1" parent="1" source="SGicZ9Gy4rJhCH-ibTGT-26" target="SGicZ9Gy4rJhCH-ibTGT-62">
          <mxGeometry relative="1" as="geometry">
            <mxPoint x="350" y="499.5" as="sourcePoint" />
            <mxPoint x="420" y="445" as="targetPoint" />
          </mxGeometry>
        </mxCell>
      </root>
    </mxGraphModel>
  </diagram>
</mxfile>
